<svg xmlns="http://www.w3.org/2000/svg" viewBox="0 0 24 24" fill="#ffffff">
  <path d="M10.343 3.94c.09-.54.56-.94 1.11-.94h1.094c.55 0 1.02.4 1.11.94l.146.882a1.25 1.25 0 00.55.648 8.25 8.25 0 012.201 1.27c.24.197.56.257.85.164l.861-.265c.54-.166 1.1.16 1.253.69l.273 1.093c.13.518-.149 1.051-.64 1.249l-.806.322c-.262.105-.45.34-.486.62a8.36 8.36 0 010 2.54c.036.28.224.515.486.62l.806.322c.491.198.769.731.64 1.25l-.273 1.093c-.153.53-.713.856-1.253.69l-.861-.265a1.25 1.25 0 00-.85.164 8.25 8.25 0 01-2.201 1.27 1.25 1.25 0 00-.55.648l-.146.882c-.09.54-.56.94-1.11.94H11.45c-.55 0-1.02-.4-1.11-.94l-.146-.882a1.25 1.25 0 00-.55-.648 8.25 8.25 0 01-2.201-1.27 1.25 1.25 0 00-.85-.164l-.861.265c-.54.166-1.1-.16-1.253-.69l-.273-1.093c-.129-.52.149-1.052.64-1.25l.806-.322c.262-.105.45-.34.486-.62a8.36 8.36 0 010-2.54c-.036-.28-.224-.515-.486-.62l-.806-.322c-.491-.198-.769-.73-.64-1.248l.273-1.093c.153-.53.713-.856 1.253-.69l.861.265c.29.093.61.033.85-.164a8.25 8.25 0 012.201-1.27c.29-.105.5-.348.55-.648l.146-.882zM12 8.25a3.75 3.75 0 100 7.5 3.75 3.75 0 000-7.5z"/>
</svg>
